<svg aria-hidden="true" style="width: 0px; height: 0px; overflow: hidden; position: absolute;" version="1.1"
  xmlns="http://www.w3.org/2000/svg">
  <defs>
    <symbol id="icon-add" viewBox="0 0 20 20">
      <path fill="currentColor" d="M16,11h-5v5H9v-5H4V9h5V4h2v5h5V11z" />
    </symbol>
    <symbol id="icon-back" viewBox="0 0 20 20">
      <path fill="currentColor"
        d="M9.64,10l4.01,4.01l-1.64,1.64l-4.01-4.01l0,0L6.35,10l1.64-1.64h0l4.01-4.01l1.64,1.64L9.64,10z" />
    </symbol>
    <symbol id="icon-close" viewBox="0 0 20 20">
      <polygon fill="currentColor"
        points="14.95,6.46 13.54,5.05 10,8.59 6.46,5.05 5.05,6.46 8.59,10 5.05,13.54 6.46,14.95 10,11.41 13.54,14.95 14.95,13.54 11.41,10 " />
    </symbol>
    <symbol id="icon-expand-down" viewBox="0 0 20 20">
      <path transform="translate(-629 -503)" fill="currentColor"
        d="M642.55,510.8l1.44,1.44L639,517.2l-4.98-4.95l1.42-1.44l3.56,3.55 L642.55,510.8z" />
    </symbol>
    <symbol id="icon-export" viewBox="0 0 20 20">
      <path fill="currentColor"
        d="M11,12h1v2v1h-1H4H3v-1V7V6h1h7h1v1v2h-1V7H4v7h7V12z M17,10.51L14,8v2H7v1h7v2L17,10.51z" />
    </symbol>
    <symbol id="icon-import" viewBox="0 0 20 20">
      <path fill="currentColor"
        d="M12,12h1v2v1h-1H5H4v-1V7V6h1h7h1v1v2h-1V7H5v7h7V12z M16,10H9V8l-3,2.49L9,13v-2h7V10z" />
    </symbol>
    <symbol id="icon-edit" viewBox="0 0 20 20">
      <path fill="currentColor"
        d="M15.8,6.69c0.26-0.26,0.26-0.68,0-0.94l0,0l-1.56-1.56c-0.26-0.26-0.68-0.26-0.94,0l0,0l-1.23,1.22l2.5,2.5 L15.8,6.69z M4,13.5V16h2.5l7.37-7.38l-2.5-2.5L4,13.5z" />
    </symbol>
    <symbol id="icon-more-options" viewBox="0 0 20 20">
      <path fill="currentColor"
        d="M2,10c0-1.1,0.9-2,2-2s2,0.9,2,2s-0.9,2-2,2S2,11.1,2,10z M8,10c0-1.1,0.9-2,2-2s2,0.9,2,2s-0.9,2-2,2 S8,11.1,8,10z M14,10c0-1.1,0.9-2,2-2s2,0.9,2,2s-0.9,2-2,2S14,11.1,14,10z" />
    </symbol>
    <symbol id="icon-open-external" viewBox="0 0 20 20">
      <path fill="currentColor"
        d="M13,10h1v4v1h-1H6H5v-1V7V6h1h4v1H6v7h7V10z M11,5l1.65,1.65l-3.56,3.56l0.71,0.71l3.56-3.56L15,9V5H11z" />
    </symbol>
    <symbol id="icon-swap" viewBox="0 0 20 20">
      <path fill="currentColor" d="M16,14H6v-3h10V8l4,4l-4,5V14z M4,6h10v3H4v3L0,7.52L4,3V6z" />
    </symbol>
    <symbol id="icon-view-disable" viewBox="0 0 20 20">
      <path fill="currentColor"
        d="M9.89,7.82l2.02,2.01v-0.1c0-1.05-0.85-1.91-1.91-1.91l0,0H9.89 M7.16,8.33l0.99,0.99 C8.12,9.46,8.1,9.59,8.1,9.73c0,1.05,0.85,1.91,1.91,1.91l0,0c0.14,0,0.28-0.02,0.41-0.05l0.99,0.99c-1.56,0.78-3.46,0.16-4.24-1.4 C6.71,10.27,6.71,9.22,7.16,8.33 M3.64,4.81l1.45,1.45l0.29,0.29C4.32,7.38,3.5,8.48,3.01,9.73c1.52,3.87,5.89,5.77,9.75,4.25 c0.01,0,0.02-0.01,0.03-0.01l0.27,0.27l1.86,1.86l0.81-0.81L4.45,4 M10,6.55c1.76,0,3.18,1.42,3.18,3.18l0,0 c0,0.4-0.08,0.79-0.23,1.16l1.86,1.86c0.97-0.81,1.72-1.85,2.18-3.02C15.5,5.94,11.27,4.02,7.45,5.4l1.38,1.37 C9.21,6.62,9.6,6.55,10,6.55z" />
    </symbol>
    <symbol id="icon-minimize" viewBox="0 0 20 20">
      <path fill="currentColor" d="M5,9h10v2H5V9z" />
    </symbol>
    <symbol id="icon-delete" viewBox="0 0 20 20">
      <path fill="currentColor"
        d="M14,5v2H5V5h2c0-0.55,0.45-1,1-1h3c0.55,0,1,0.45,1,1H14z M6,8v7c0,0.55,0.45,1,1,1h5c0.55,0,1-0.45,1-1V8 l0,0H6L6,8z" />
    </symbol>
    <symbol id="icon-rubber-band-zoom" viewBox="0 0 22 22">
      <path fill="currentColor" d="M16.4,14.7l5.6,5.6L20.3,22l-5.6-5.6v-0.9l-0.3-0.3c-3.1,2.6-7.7,2.3-10.3-0.8
        S1.7,6.7,4.8,4s7.7-2.3,10.3,0.8c2.4,2.7,2.4,6.8,0,9.6l0.3,0.3L16.4,14.7 M9.6,14.7c2.8,0,5.1-2.3,5.1-5.1s-2.3-5.1-5.1-5.1
        S4.5,6.8,4.5,9.6C4.5,12.4,6.8,14.7,9.6,14.7C9.6,14.7,9.6,14.7,9.6,14.7 M12.4,10.2h-2.3v2.3H9v-2.3H6.8V9H9V6.8h1.1V9h2.3V10.2z
        "/>
      <g>
        <polygon fill="currentColor" points="2.3,0 0,0 0,1.1 2.3,1.1 2.3,0                                               "/>
      </g>
      <g>
        <polygon fill="currentColor" points="19.2,0 18,0 18,2.3 19.2,2.3 19.2,0                                  "/>
      </g>
      <g>
        <polygon fill="currentColor" points="6.8,0 4.5,0 4.5,1.1 6.8,1.1 6.8,0                                       "/>
      </g>
      <g>
        <polygon fill="currentColor" points="5.6,18 3.4,18 3.4,19.2 5.6,19.2 5.6,18                                           "/>
      </g>
      <g>
        <polygon fill="currentColor" points="11.3,0 9,0 9,1.1 11.3,1.1 11.3,0                                       "/>
      </g>
      <g>
        <polygon fill="currentColor" points="10.1,18 7.9,18 7.9,19.2 10.1,19.2 10.1,18                                   "/>
      </g>
      <g>
        <polygon fill="currentColor" points="15.8,0 13.5,0 13.5,1.1 15.8,1.1 15.8,0                                           "/>
      </g>
      <g>
        <polygon fill="currentColor" points="14.7,18 12.4,18 12.4,19.2 14.7,19.2 14.7,18                                              "/>
      </g>
      <g>
        <polygon fill="currentColor" points="1.1,16.9 0,16.9 0,19.2 1.1,19.2 1.1,16.9                                       "/>
      </g>
      <g>
        <polygon fill="currentColor" points="1.1,12.4 0,12.4 0,14.7 1.1,14.7 1.1,12.4                                       "/>
      </g>
      <g>
        <polygon fill="currentColor" points="19.2,13.5 18,13.5 18,15.8 19.2,15.8 19.2,13.5                                          "/>
      </g>
      <g>
        <polygon fill="currentColor" points="1.1,7.9 0,7.9 0,10.1 1.1,10.1 1.1,7.9                                              "/>
      </g>
      <g>
        <polygon fill="currentColor" points="19.2,9 18,9 18,11.3 19.2,11.3 19.2,9                                             "/>
      </g>
      <g>
        <polygon fill="currentColor" points="1.1,3.4 0,3.4 0,5.6 1.1,5.6 1.1,3.4                                   "/>
      </g>
      <g>
        <polygon fill="currentColor" points="19.2,4.5 18,4.5 18,6.8 19.2,6.8 19.2,4.5                                       "/>
      </g>
    </symbol>
    <symbol id="icon-paint" viewBox="0 0 20 20">
      <path fill="currentColor"
        d="M17,13c0,0-2,2.2-2,3.5c0,1.1,0.9,2,2,2s2-0.9,2-2C19,15.2,17,13,17,13 M3.2,11.5L8,6.7l4.8,4.8 M14.6,10.4 L5.6,1.5L4.2,2.9l2.4,2.4l-5.1,5.1c-0.6,0.6-0.6,1.5,0,2.1l5.5,5.5c0.3,0.3,0.7,0.4,1.1,0.4s0.8-0.1,1.1-0.4l5.5-5.5 C15.2,12,15.2,11,14.6,10.4z" />
    </symbol>
    <symbol id="icon-caution" viewBox="0 0 20 20">
      <path id="alert-circle" fill="currentColor"
        d="M11,11H9V5h2 M11,15H9v-2h2 M10,0C4.5,0,0,4.5,0,10s4.5,10,10,10s10-4.5,10-10 S15.5,0,10,0z" />
    </symbol>
    <symbol id="icon-checkmark" viewBox="0 0 24 24">
      <path fill="currentColor" d="M21,7L9,19L3.5,13.5L4.91,12.09L9,16.17L19.59,5.59L21,7Z" />
    </symbol>
    <symbol id="icon-checkbox-checked" viewBox="0 0 15 15">
      <path fill="currentColor" d="M15,0H0v15h15V0z M6.5,10.9L3,7.4L4.3,6l2.2,2.1l4-4l1.4,1.4L6.5,10.9z" />
    </symbol>
    <symbol id="icon-window-maximize" viewBox="0 0 20 20">
      <path fill="currentColor" d="M14,5H6H5v3v6v1h1h8h1v-1V8V5H14z M14,14H6V8h8V14z" />
    </symbol>
    <symbol id="icon-drag-and-drop" viewBox="0 0 10 20">
      <path transform="translate(-800 -496)" fill="currentColor"
        d="M802,499h2v2h-2V499 M806,499h2v2h-2V499 M802,503h2v2h-2V503 M806,503h2 v2h-2V503 M802,507h2v2h-2V507 M806,507h2v2h-2V507 M802,511h2v2h-2V511 M806,511h2v2h-2V511z" />
    </symbol>
    <symbol id="icon-account" viewBox="0 0 20 20">
      <path fill="currentColor"
        d="M14,4A5,5,0,1,1,9,9a5,5,0,0,1,5-5m0,13c5.525,0,10,1.237,10,4v3H4V21C4,18.237,8.475,17,14,17Z"
        transform="translate(-4 -4)" />
    </symbol>
    <symbol id="icon-menu" viewBox="0 0 18 12">
      <path fill="currentColor" d="M3,6H21V8H3V6m0,5H21v2H3V11m0,5H21v2H3Z" transform="translate(-3 -6)" />
    </symbol>
    <symbol id="icon-roxc-logo" viewBox="0 0 30.684 26.333">
      <g transform="translate(-811.261 -336)">
        <g transform="translate(814.871 351.202)">
          <g transform="translate(0 0)">
            <path fill="#aeaeae"
              d="M314.586,207.341a9.912,9.912,0,0,0,.983-3.592.679.679,0,0,0-.5-.712q-5.74-1.511-12.435,1.376a11.336,11.336,0,0,1-6.187,1.179.636.636,0,0,0-.461.081.629.629,0,0,0-.3.359.621.621,0,0,0,.007.468,10.218,10.218,0,0,0,2.352,3.585h.007q.386.386.793.725a.657.657,0,0,0,.319.142,10.789,10.789,0,0,0,5.577-.488l.034-.014q2.839-1.2,5.354-2.019l-.014.007a17.159,17.159,0,0,1,3.91-.718.707.707,0,0,0,.339-.115A.686.686,0,0,0,314.586,207.341Z"
              transform="translate(-295.637 -202.519)" />
          </g>
        </g>
        <g transform="translate(813.762 340.771)">
          <g transform="translate(0 0)">
            <path fill="#c1272c"
              d="M298.245,125.55h-.014a10.781,10.781,0,1,0,10.781,10.781,11.94,11.94,0,0,0-.1-1.572,10.812,10.812,0,0,0-10.666-9.209m-.014,1.172h.014a9.664,9.664,0,0,1,9.487,8.037,10.609,10.609,0,0,1,.115,1.579,9.612,9.612,0,1,1-9.616-9.616Z"
              transform="translate(-287.45 -125.55)" />
          </g>
        </g>
        <path fill="#fff"
          d="M318.639,109.948v-.678h-.678v.678h.678m-2.406-.678v.678h.678v-.678h-.678m-1.721,0v.678h.678v-.678h-.678m-1.1-18.92h-3.835l-.468,2.521h-.766v.813h.61l-.644,3.388H307.8v.813h.359l-.617,3.253h-.962v.813h.813l-1.24,6.6h.827l.488-2.589,3.11-1.708v4.208a1.853,1.853,0,0,0,.2.678l.014.027a1.3,1.3,0,0,0,1.24.779h1.437v-.678h-1.437a.678.678,0,0,1-.623-.386,1.12,1.12,0,0,1-.156-.515v-4.479l.2-.115,3.483,1.945.413-.434-.434-3.334h.6v-.813h-.712l-.42-3.253h.318v-.813h-.427l-.44-3.388h.461v-.813h-.562l-.332-2.521m-3.158.813H312.7l.224,1.708h-2.988l.319-1.708m-1.288,6.831.014.007,1.958,1.464-2.365,1.674h-.2l.59-3.144m2.08-2.833-1.9,1.877.6-3.185,1.3,1.308m2.412,1.857-1.836-1.85,1.416-1.41.42,3.259m-2.128-1.565,1.613,1.62h-3.253l1.64-1.62m0-.576-1.179-1.193h2.379l-1.2,1.193M309.5,97.885h3.666l-1.884,1.335L309.5,97.885m4.486,3.253h-.136l-2.229-1.66,1.972-1.4.393,3.056m-4.716,0,2.006-1.416,1.891,1.416h-3.9m1.762,2.406-.454.251q-.264.142-.522.285l-2.5,1.362.657-3.476,2.819,1.579m2.894-1.592-2.473,1.362-2.433-1.362h4.906m-2.053,1.6,2.263-1.247.359,2.711Z"
          transform="translate(510.146 245.65)" />
        <path fill="#666"
          d="M388.344,159.226h-.779l-.922,4.459,2.629-.149h.007l-.935-4.31m-4.669-1.626-1.125,5.414,3.205-.176-1.138-5.238Z"
          transform="translate(444.101 187.514)" />
        <g transform="translate(811.261 349.956)">
          <g transform="translate(0)">
            <path fill="#c1272c"
              d="M279.863,204.625a34.353,34.353,0,0,1,7.38-2.988q8.593-1.362,12.442,1.355-4.432-5.57-12.808-3.083-2.541.827-5.408,2.04a10.475,10.475,0,0,1-6.79.088,15.428,15.428,0,0,0,5.184,2.589m8.484-11.276a12.262,12.262,0,0,0-1.525,0,29.482,29.482,0,0,0-10.267,3.022q-4.127,1.559-7.556-2.27,2.155,6.8,10.863,3.056t15.722.156A10.02,10.02,0,0,0,288.347,193.349Z"
              transform="translate(-269 -193.325)" />
          </g>
        </g>
      </g>
    </symbol>
    <symbol id="icon-select" viewBox="0 0 12.354 17.469">
      <path fill="currentColor" d="M0,0,12.354,12.321H5.34L0,17.469Z" />
    </symbol>
    <symbol id="icon-zoom-in" viewBox="0 0 17.5 17.5">
      <path fill="currentColor"
        d="M15.5,14l5,5L19,20.5l-5-5v-.79l-.27-.28a6.51,6.51,0,1,1,.7-.7l.28.27h.79m-6,0A4.5,4.5,0,1,0,5,9.5,4.481,4.481,0,0,0,9.5,14M12,10H10v2H9V10H7V9H9V7h1V9h2Z"
        transform="translate(-3 -3)" />
    </symbol>
    <symbol id="icon-zoom-out" viewBox="0 0 17.5 17.5">
      <path fill="currentColor"
        d="M15.5,14h-.79l-.28-.27a6.51,6.51,0,1,0-.7.7l.27.28v.79l5,5L20.5,19l-5-5m-6,0A4.5,4.5,0,1,1,14,9.5,4.481,4.481,0,0,1,9.5,14M7,9h5v1H7Z"
        transform="translate(-3 -3)" />
    </symbol>
    <symbol id="icon-zoom-to-fit" viewBox="0 0 18.5 18.5">
      <g transform="translate(-266.25 -191.25)">
        <path fill="currentColor"
          d="M266.25,203.25v3h3v-1h-2v-2h-1m12.1-9.1a6.374,6.374,0,0,0-4.6-1.9,6.265,6.265,0,0,0-4.6,1.9,6.374,6.374,0,0,0-1.9,4.6,6.491,6.491,0,0,0,10.7,4.95l.3.3v.75l.5.5h-.5v1h1.5l3.5,3.5,1.5-1.5-3.5-3.5v-1.5h-1v.5l-.5-.5h-.8l-.3-.25a6.308,6.308,0,0,0,1.6-4.25,6.374,6.374,0,0,0-1.9-4.6m-4.6.1a4.349,4.349,0,0,1,3.2,1.3,4.457,4.457,0,0,1,1.3,3.2,4.44,4.44,0,0,1-4.5,4.5,4.457,4.457,0,0,1-3.2-1.3,4.349,4.349,0,0,1-1.3-3.2,4.44,4.44,0,0,1,4.5-4.5m7.5,0v-3h-3v1h2v2h1m-15-3v3h1v-2h2v-1Z" />
      </g>
    </symbol>
    <symbol id="icon-pan" viewBox="0 0 16.5 18">
      <g transform="translate(-192.867 -110.5)">
        <g transform="translate(192.867 110.5)">
          <path fill="currentColor"
            d="M208.568,121.15a.9.9,0,0,0-.7-.35l-.249.05-3.194,1.65.5-10.05a.872.872,0,0,0-.249-.75,1.013,1.013,0,0,0-.7-.35,1.057,1.057,0,0,0-.7.25,1.176,1.176,0,0,0-.349.7l-.249,4.7h-.249l-1.048.1v-5.6a1.024,1.024,0,0,0-1-1,1.024,1.024,0,0,0-1,1v6.45l-.8.35-.7-5.45a.973.973,0,0,0-.349-.65,1.029,1.029,0,0,0-.748-.2.764.764,0,0,0-.649.35.872.872,0,0,0-.249.75l.8,6.05-.748.35-1.1-3.85a.965.965,0,0,0-1.247-.8.894.894,0,0,0-.6.5,1.246,1.246,0,0,0-.1.85l2.445,8.565.5,1.43V128.5h7.984v-1.67a1.1,1.1,0,0,1,.479-.62q.06-.05.12-.11l4.94-4.2Z"
            transform="translate(-192.867 -110.5)" />
        </g>
      </g>
    </symbol>
    <symbol id="icon-view-options" viewBox="0 0 24 18">
      <g transform="translate(-331 -52)">
        <rect fill="currentColor" width="16" height="7" transform="translate(333 58)" />
        <rect fill="currentColor" width="3" height="7" transform="translate(350 58)" />
        <rect fill="currentColor" width="4" height="3" transform="translate(349 54)" />
        <rect fill="currentColor" width="15" height="3" transform="translate(333 54)" />
        <g fill="none" transform="translate(331 52)">
          <path stroke="none" d="M0,0H24V15H0Z" />
          <path fill="currentColor" stroke="none"
            d="M 1 1 L 1 14 L 23 14 L 23 1 L 1 1 M 0 0 L 24 0 L 24 15 L 0 15 L 0 0 Z" />
        </g>
        <g fill="currentColor" stroke="currentColor" transform="translate(337 69)">
          <rect stroke="none" width="12" height="1" />
          <rect fill="none" x="0.5" y="0.5" width="11" />
        </g>
        <g fill="currentColor" stroke="currentColor" transform="translate(341 67)">
          <rect stroke="none" width="4" height="2" />
          <rect fill="none" x="0.5" y="0.5" width="3" height="1" />
        </g>
      </g>
    </symbol>
    <symbol id="icon-3d-view" viewBox="0 0 20 20">
      <path fill="currentColor" id="Group_2498" transform="translate(-25 -2.5)" d="M35,13.6l7-4.5l0,0l-7-4.5l-7,4.5l0,0L35,13.6z M35.5,14.5v5.8l6.5-4.2
          v-5.8L35.5,14.5z M34.5,14.5L28,10.3v5.8l6.5,4.2V14.5z" />
    </symbol>
    <symbol id="icon-inversions" viewBox="0 0 20 20">
      <path transform="translate(-341 -367)" fill="currentColor"
        d="M345,371h2c0.6,0,1,0.4,1,1v7c0,0.6-0.4,1-1,1h-2c-0.6,0-1-0.4-1-1v-7 C344,371.4,344.4,371,345,371z M350,373h2c0.6,0,1,0.4,1,1v7c0,0.6-0.4,1-1,1h-2c-0.6,0-1-0.4-1-1v-7C349,373.4,349.4,373,350,373z M355,375h2c0.6,0,1,0.4,1,1v7c0,0.6-0.4,1-1,1h-2c-0.6,0-1-0.4-1-1v-7C354,375.4,354.4,375,355,375z" />
    </symbol>
    <symbol id="icon-link" viewBox="0 0 20 20">
      <path d="M9.4,12c-0.7,1.2-2,2-3.4,2H4c-2.2,0-4-1.8-4-4s1.8-4,4-4h2c1.4,0,2.7,0.8,3.4,2H4c-1.1,0-2,0.9-2,2s0.9,2,2,2H9.4z M14,8h2
        c1.1,0,2,0.9,2,2s-0.9,2-2,2h-5.4c0.7,1.2,2,2,3.4,2h2c2.2,0,4-1.8,4-4s-1.8-4-4-4h-2c-1.4,0-2.7,0.8-3.4,2H14z M6,9
        c-0.6,0-1,0.4-1,1s0.4,1,1,1h8c0.6,0,1-0.4,1-1s-0.4-1-1-1H6z" />
    </symbol>
    <symbol id="icon-options" viewBox="0 0 20 20">
      <path fill="currentColor" d="M2,10c0-1.1,0.9-2,2-2s2,0.9,2,2s-0.9,2-2,2S2,11.1,2,10z M8,10c0-1.1,0.9-2,2-2s2,0.9,2,2
          s-0.9,2-2,2S8,11.1,8,10z M14,10c0-1.1,0.9-2,2-2s2,0.9,2,2s-0.9,2-2,2S14,11.1,14,10z" />
    </symbol>
    <symbol id="icon-user" viewBox="0 0 13 16">
      <path fill="currentColor"
        d="M9.5,1,3,3.909V8.273A9.042,9.042,0,0,0,9.5,17,9.042,9.042,0,0,0,16,8.273V3.909L9.5,1m0,2.909A2.182,2.182,0,1,1,7.333,6.091,2.174,2.174,0,0,1,9.5,3.909m3.7,8.727a7,7,0,0,1-3.7,2.851,7,7,0,0,1-3.7-2.851,7.407,7.407,0,0,1-.628-1.113c0-1.2,1.957-2.182,4.333-2.182s4.333.96,4.333,2.182A7.407,7.407,0,0,1,13.2,12.636Z"
        transform="translate(-3 -1)" />
    </symbol>
    <symbol id="icon-fit-to-screen" viewBox="0 0 20 20">
      <path fill="currentColor" class="st0" d="M17,4.5H3v11l14,0V4.5z M16,14.5H4v-9h12V14.5z" />
      <polygon fill="currentColor" class="st0" points="1,15.5 0,15.5 0,18.5 3,18.5 3,17.5 1,17.5     " />
      <polygon fill="currentColor" class="st0" points="19,17.5 17,17.5 17,18.5 20,18.5 20,15.5 19,15.5      " />
      <polygon fill="currentColor" class="st0" points="1,2.5 3,2.5 3,1.5 0,1.5 0,4.5 1,4.5    " />
      <polygon fill="currentColor" class="st0" points="17,1.5 17,2.5 19,2.5 19,4.5 20,4.5 20,1.5     " />
      <rect fill="currentColor" x="5" y="6.5" class="st0" width="10" height="7" />
    </symbol>
    <symbol id="icon-rotate-up" viewBox="0 0 20 20">
      <path fill="currentColor" id="Path_1845" class="st0"
        d="M17.4,7l-5.7-7L6.1,7l4.3,0c0,2.6-0.3,5.1-1.1,7.5c-0.8,2.2-1.7,2.9-2.2,3c-0.8,0.1-1.5-0.3-2.2-1.3
                c-0.7-0.9-1.6-2.7-2.3-6.3l0,0c0.1,2.2,0.5,4.9,0.8,6.1c0.6,2.2,1.8,4,3.6,4s3.5-1.6,4.6-4.6c0.9-2.7,1.5-5.5,1.5-8.4H17.4z" />
    </symbol>
    <symbol id="icon-rotate-down" viewBox="0 0 20 20">
      <path fill="currentColor" class="st0"
        d="M17.4,13l-5.7,7l-5.7-7l4.3,0c0-2.6-0.3-5.1-1.1-7.5c-0.8-2.2-1.7-2.9-2.2-3C6.2,2.4,5.6,2.9,4.9,3.8
                c-0.7,0.9-1.6,2.7-2.3,6.3l0,0C2.7,7.9,3.1,5.2,3.5,4c0.6-2.2,1.8-4,3.6-4s3.5,1.6,4.6,4.6c0.9,2.7,1.5,5.5,1.5,8.4H17.4z" />
    </symbol>
    <symbol id="icon-rotate-right" viewBox="0 0 20 20">
      <path fill="currentColor" class="st0"
        d="M13,17.4l7-5.7l-7-5.7l0,4.3c-2.6,0-5.1-0.3-7.5-1.1c-2.2-0.8-2.9-1.7-3-2.2C2.4,6.2,2.9,5.6,3.8,4.9
                c0.9-0.7,2.7-1.6,6.3-2.3l0,0C7.9,2.7,5.2,3.1,4,3.5C1.8,4.1,0,5.3,0,7.1s1.6,3.5,4.6,4.6c2.7,0.9,5.5,1.5,8.4,1.5V17.4z" />
    </symbol>
    <symbol id="icon-rotate-left" viewBox="0 0 20 20">
      <path fill="currentColor" id="Path_1843" class="st0"
        d="M7,17.4l-7-5.7l7-5.7l0,4.3c2.6,0,5.1-0.3,7.5-1.1c2.2-0.8,2.9-1.7,3-2.2c0.1-0.8-0.3-1.5-1.3-2.2
                c-0.9-0.7-2.7-1.6-6.3-2.3l0,0c2.2,0.1,4.9,0.5,6.1,0.8c2.2,0.6,4,1.8,4,3.6s-1.6,3.5-4.6,4.6c-2.7,0.9-5.5,1.5-8.4,1.5V17.4z" />
    </symbol>
    <symbol id="icon-3d-info" viewBox="0 0 20 20">
      <path fill="currentColor" class="st0" d="M9.1,7c0.5,0.4,1.3,0.4,1.9,0c0.5-0.5,0.5-1.2,0-1.7c-0.6-0.4-1.3-0.4-1.9,0C8.8,5.5,8.7,5.8,8.7,6.1
        C8.7,6.5,8.8,6.8,9.1,7z" />
      <rect fill="currentColor" x="8.8" y="8.4" class="st0" width="2.3" height="6.7" />
      <path fill="currentColor" class="st0" d="M2.4,9c0.1-1,0.5-2,1-2.8l0,0C2.5,4.3,2.6,3.3,2.9,2.9c0.2-0.2,0.5-0.3,0.8-0.2c0.8,0,1.6,0.3,2.4,0.6l0,0
        C7,2.8,8,2.5,9,2.4C8.4,2,7.7,1.6,7,1.3C4.5,0.2,2.5,0.2,1.4,1.4S0.2,4.5,1.3,7C1.6,7.7,2,8.4,2.4,9z" />
      <path fill="currentColor" class="st0"
        d="M17.6,11c-0.1,1-0.5,2-1,2.8l0,0c0.8,1.8,0.7,2.9,0.4,3.2c-0.3,0.3-1.4,0.4-3.2-0.4l0,0c-0.9,0.5-1.8,0.8-2.8,1
        c0.6,0.4,1.3,0.7,2,1c1,0.5,2.1,0.8,3.3,0.8c0.9,0,1.7-0.3,2.4-0.9c1.1-1.1,1.2-3.2,0.1-5.7C18.4,12.3,18,11.6,17.6,11z" />
      <path fill="currentColor" class="st0"
        d="M6.1,16.7c-1.8,0.8-2.9,0.7-3.2,0.4c-0.3-0.3-0.4-1.4,0.4-3.2l0,0C2.8,13,2.5,12,2.4,11c-0.4,0.6-0.7,1.3-1,2
        c-1.1,2.5-1.1,4.5,0.1,5.6c0.6,0.6,1.5,0.9,2.4,0.9c1.1,0,2.3-0.3,3.3-0.8c0.7-0.3,1.3-0.7,2-1C8,17.5,7,17.2,6.1,16.7L6.1,16.7z" />
      <path fill="currentColor" class="st0" d="M13.9,3.3c1.8-0.8,2.9-0.7,3.2-0.4c0.3,0.3,0.4,1.4-0.4,3.2l0,0C17.2,7,17.5,8,17.6,9c0.4-0.6,0.7-1.3,1-2
        c1.1-2.5,1.1-4.5-0.1-5.6c-1.1-1.1-3.2-1.2-5.6-0.1c-0.7,0.3-1.3,0.7-2,1C12,2.5,13,2.8,13.9,3.3L13.9,3.3z" />
    </symbol>
    <symbol id="icon-inversion-zoom" viewBox="0 0 20 20">
      <polygon fill="currentColor" class="st0" points="1,14 0,14 0,17 3,17 3,16 1,16" />
      <polygon fill="currentColor" class="st0" points="19,16 17,16 17,17 20,17 20,14 19,14" />
      <polygon fill="currentColor" class="st0" points="1,1 3,1 3,0 0,0 0,3 1,3" />
      <polygon fill="currentColor" class="st0" points="17,0 17,1 19,1 19,3 20,3 20,0" />
      <path fill="currentColor" class="st0"
        d="M6,2H4C3.4,2,3,2.4,3,3v7c0,0.6,0.4,1,1,1h2c0.6,0,1-0.4,1-1V3C7,2.4,6.6,2,6,2z" />
      <path fill="currentColor" class="st0"
        d="M11,4H9C8.4,4,8,4.4,8,5v7c0,0.6,0.4,1,1,1h2c0.6,0,1-0.4,1-1V5C12,4.4,11.6,4,11,4z" />
      <path fill="currentColor" class="st0"
        d="M17,7c0-0.6-0.4-1-1-1h-2c-0.6,0-1,0.4-1,1v7c0,0.6,0.4,1,1,1h2c0.6,0,1-0.4,1-1V7z" />
    </symbol>
    <symbol id="icon-question" viewBox="0 0 20 20">
      <path fill="currentColor" d="M16,20H4c-2.21,0-4-1.79-4-4V4c0-2.21,1.79-4,4-4h12c2.21,0,4,1.79,4,4v12C20,18.21,18.21,20,16,20z
            M9.75,13.71c-0.34-0.01-0.66,0.11-0.91,0.34c-0.47,0.47-0.47,1.23-0.01,1.71c0.25,0.23,0.58,0.35,0.92,0.33
            c0.34,0.02,0.67-0.11,0.92-0.33c0.23-0.22,0.36-0.53,0.35-0.85c0.01-0.32-0.12-0.64-0.36-0.86C10.41,13.82,10.09,13.7,9.75,13.71z
            M9.91,6.31c0.81,0,1.22,0.44,1.22,1.32c0,0.29-0.08,0.58-0.23,0.83c-0.26,0.38-0.58,0.73-0.94,1.02c-0.42,0.35-0.75,0.78-0.97,1.28
            c-0.2,0.56-0.29,1.15-0.27,1.74h2l0.03-0.48c0.06-0.51,0.3-0.99,0.68-1.34l0.63-0.6c0.41-0.38,0.77-0.82,1.04-1.31
            c0.2-0.39,0.3-0.82,0.3-1.26c0.05-0.85-0.29-1.68-0.91-2.26c-0.73-0.57-1.64-0.86-2.57-0.8C8.97,4.42,8.05,4.72,7.32,5.32
            c-0.65,0.6-1,1.46-0.97,2.34h2.26C8.61,7.29,8.74,6.94,8.98,6.67C9.23,6.43,9.56,6.3,9.91,6.31L9.91,6.31z" />
    </symbol>
    <symbol id="icon-settings" viewBox="0 0 15 13">
      <path fill="currentColor" class="st0"
        d="M14.5,11H7v-0.5C7,10.2,6.8,10,6.5,10h-2C4.2,10,4,10.2,4,10.5V11H0.5C0.2,11,0,11.2,0,11.5S0.2,12,0.5,12H4
                                v0.5C4,12.8,4.2,13,4.5,13h2C6.8,13,7,12.8,7,12.5V12h7.5c0.3,0,0.5-0.2,0.5-0.5S14.8,11,14.5,11z" />
      <path fill="currentColor" class="st0" d="M14.5,6H12V5.5C12,5.2,11.8,5,11.5,5h-2C9.2,5,9,5.2,9,5.5V6H0.5C0.2,6,0,6.2,0,6.5S0.2,7,0.5,7H9v0.5
                      C9,7.8,9.2,8,9.5,8h2C11.8,8,12,7.8,12,7.5V7h2.5C14.8,7,15,6.8,15,6.5S14.8,6,14.5,6z" />
      <path fill="currentColor" class="st0" d="M14.5,1H6V0.5C6,0.2,5.8,0,5.5,0h-2C3.2,0,3,0.2,3,0.5V1H0.5C0.2,1,0,1.2,0,1.5S0.2,2,0.5,2H3v0.5
                      C3,2.8,3.2,3,3.5,3h2C5.8,3,6,2.8,6,2.5V2h8.5C14.8,2,15,1.8,15,1.5S14.8,1,14.5,1z" />
    </symbol>
    <symbol id="icon-notification" viewBox="0 0 20 20">
      <path fill="currentColor" id="Path_280" class="st0" d="M11.9,12c-0.6,0-0.9-1.9-0.9-3.3c0-1.6-0.3-4-1.1-4.8S8.1,3.1,8.1,2.2S7.8,0,6.3,0l0,0
    C5,0.2,4.8,1.3,4.8,2.2c0,1-0.9,1.1-1.8,1.8S1.8,7.2,1.8,8.7c0,1.3-0.2,3.3-0.9,3.3C0.4,12.1,0,12.5,0,13.1c0,0.6,0.5,1.1,1.1,1.1
    c0,0,0,0,0,0h10.9c0.6,0,1.1-0.5,1.1-1.1c0,0,0,0,0,0C13,12.5,12.5,12,11.9,12C11.9,12,11.9,12,11.9,12z" />
      <path fill="currentColor" id="Path_281" class="st0"
        d="M4.2,14.7c0.3,1.1,1.2,1.8,2.3,1.8c1.1,0,2.1-0.8,2.3-1.8H4.2z" />
    </symbol>
    <symbol id="icon-download" viewBox="0 0 9 11">
      <polygon fill="currentColor" class="st0" points="8,8 8,10 1,10 1,8 0,8 0,10 0,11 1,11 8,11 9,11 9,10 9,8 " />
      <polygon fill="currentColor" class="st0" points="4,6 4,0 5,0 5,6 7,6 4.5,9 2,6 " />
    </symbol>
    <symbol id="icon-gear" viewBox="0 0 12 12">
      <path fill="currentColor" id="Path_1827" class="st0" d="M0.2,7.1C0.5,6.9,0.7,6.8,1,6.6c0.2-0.1,0.4-0.2,0.4-0.5l0-0.4c0-0.1,0-0.2-0.1-0.2
                C1,5.3,0.6,5.2,0.3,5S0,4.7,0.1,4.4c0.2-0.5,0.4-1,0.6-1.5c0.1-0.3,0.2-0.3,0.5-0.2C1.6,2.8,2,2.9,2.3,3c0.1,0,0.2,0,0.2-0.1
                c0.1-0.1,0.3-0.2,0.4-0.4C3,2.5,3,2.4,3,2.3C2.9,1.9,2.8,1.5,2.7,1.1c-0.1-0.3,0-0.3,0.2-0.4c0.5-0.2,1-0.4,1.5-0.6
                C4.6,0,4.7,0,4.9,0.2c0.2,0.4,0.4,0.7,0.6,1.1c0,0.1,0.1,0.1,0.2,0.1c0.2,0,0.4,0,0.6,0c0.1,0,0.2,0,0.3-0.1C6.7,0.9,6.9,0.6,7,0.3
S7.3,0,7.6,0.1c0.5,0.2,1,0.4,1.5,0.6c0.2,0.1,0.3,0.2,0.2,0.5C9.2,1.6,9.1,2,9,2.3c0,0.1,0,0.2,0.1,0.2c0.1,0.1,0.3,0.3,0.4,0.4
                C9.5,3,9.6,3,9.7,3c0.4-0.1,0.8-0.2,1.2-0.3c0.3-0.1,0.4,0,0.5,0.2c0.2,0.5,0.4,1,0.6,1.4c0.1,0.3,0.1,0.4-0.2,0.5
                c-0.3,0.2-0.7,0.4-1,0.6c-0.1,0-0.1,0.1-0.1,0.2c0,0.2,0,0.4,0,0.5c0,0.1,0,0.2,0.1,0.2c0.3,0.2,0.6,0.4,1,0.5
                C12,7.2,12,7.2,11.9,7.5c-0.2,0.5-0.4,1-0.6,1.6c-0.1,0.3-0.2,0.3-0.5,0.2C10.4,9.2,10,9.1,9.7,9C9.6,9,9.5,9,9.5,9
                C9.3,9.2,9.2,9.3,9.1,9.5C9,9.5,9,9.6,9,9.6c0.1,0.4,0.2,0.8,0.3,1.2c0.1,0.1,0,0.3-0.1,0.4L7.4,12c-0.1,0-0.2-0.1-0.3-0.2
                c-0.2-0.3-0.4-0.6-0.6-1c-0.1-0.1-0.2-0.2-0.4-0.2c-0.1,0-0.4,0-0.5,0c-0.1,0-0.2,0-0.2,0.1C5.3,11,5.2,11.3,5,11.6
                C4.8,12,4.7,12,4.4,11.9c-0.5-0.2-1-0.4-1.5-0.6c-0.2-0.1-0.2-0.2-0.2-0.4c0,0,0,0,0,0c0.1-0.4,0.2-0.8,0.3-1.2c0-0.1,0-0.2-0.1-0.2
                C2.8,9.3,2.7,9.2,2.5,9.1C2.5,9,2.4,9,2.3,9C1.9,9.1,1.5,9.2,1.1,9.3c-0.2,0.1-0.3,0-0.4-0.2c-0.2-0.5-0.4-1-0.6-1.5
                C0,7.3,0,7.2,0.2,7.1z M3.9,6.9c0.5,1.2,1.8,1.7,3,1.2c1.2-0.5,1.7-1.8,1.2-3C7.6,4,6.3,3.4,5.1,3.9c0,0,0,0,0,0
                C4,4.4,3.4,5.7,3.9,6.9C3.9,6.9,3.9,6.9,3.9,6.9z" />

    </symbol>
    <symbol id="icon-calendar" viewBox="0 0 24 24">
        <path fill="currentColor" d="M20 20h-4v-4h4v4zm-6-10h-4v4h4v-4zm6 0h-4v4h4v-4zm-12 6h-4v4h4v-4zm6 0h-4v4h4v-4zm-6-6h-4v4h4v-4zm16-8v22h-24v-22h3v1c0 1.103.897 2 2 2s2-.897 2-2v-1h10v1c0 1.103.897 2 2 2s2-.897 2-2v-1h3zm-2 6h-20v14h20v-14zm-2-7c0-.552-.447-1-1-1s-1 .448-1 1v2c0 .552.447 1 1 1s1-.448 1-1v-2zm-14 2c0 .552-.447 1-1 1s-1-.448-1-1v-2c0-.552.447-1 1-1s1 .448 1 1v2z" />
    </svg>
    </symbol>
  </defs>
</svg>
